<?xml version="1.0" standalone="no"?>
<!DOCTYPE svg PUBLIC "-//W3C//DTD SVG 20010904//EN"
 "http://www.w3.org/TR/2001/REC-SVG-20010904/DTD/svg10.dtd">
<svg version="1.0" xmlns="http://www.w3.org/2000/svg"
 width="1600.000000pt" height="456.000000pt" viewBox="0 0 1600.000000 456.000000"
 preserveAspectRatio="xMidYMid meet">

<g transform="translate(0.000000,456.000000) scale(0.100000,-0.100000)"
fill="#732154" stroke="none">
<path d="M314 3636 c-26 -68 257 -534 387 -637 85 -67 184 -96 419 -123 74 -9
218 -27 320 -40 323 -43 845 -94 1445 -141 990 -78 1601 -138 1910 -186 183
-29 395 -77 430 -98 52 -30 75 -75 75 -147 0 -60 2 -64 37 -96 78 -69 129
-127 157 -178 21 -38 25 -52 14 -47 -108 41 -156 48 -323 48 -229 0 -511 -43
-825 -127 -31 -8 -18 1 248 186 106 73 189 136 185 140 -15 13 -142 31 -603
86 -256 30 -557 66 -670 80 -350 42 -900 108 -1325 159 -121 15 -452 55 -735
89 -597 72 -551 77 -505 -51 136 -384 348 -672 634 -861 133 -88 200 -116 276
-115 28 0 232 39 455 86 223 47 452 95 510 107 58 12 202 41 320 66 118 25
289 60 380 79 91 18 185 38 209 44 24 5 39 6 35 2 -5 -5 -160 -65 -344 -136
-184 -70 -384 -146 -445 -170 -60 -23 -325 -124 -587 -225 -400 -154 -478
-186 -478 -202 0 -55 211 -243 345 -307 114 -55 304 -117 415 -137 131 -23
341 -14 506 20 311 65 1065 301 1754 549 409 146 466 173 520 234 33 37 140
248 140 275 0 8 18 68 41 133 22 66 47 165 55 220 74 490 -285 886 -956 1055
-187 47 -370 75 -865 129 -660 73 -946 97 -1490 126 -356 19 -856 50 -1110 70
-234 18 -611 42 -807 51 -133 6 -148 5 -154 -10z"/>
<path d="M15402 3185 c-67 -29 -79 -58 -116 -275 -14 -80 -43 -230 -66 -335
-33 -153 -210 -1031 -210 -1042 0 -2 69 -3 154 -3 l154 0 12 53 c36 168 320
1590 318 1592 -5 5 -157 25 -186 25 -15 -1 -42 -7 -60 -15z"/>
<path d="M6855 3144 c-80 -12 -186 -38 -245 -61 -308 -121 -541 -388 -605
-695 -82 -390 68 -715 389 -842 102 -41 197 -57 327 -57 441 0 792 288 890
730 10 47 19 94 19 104 0 16 -25 17 -392 17 -372 0 -395 -1 -425 -20 -39 -24
-55 -75 -51 -163 l3 -62 223 -3 c122 -1 222 -5 222 -8 0 -33 -98 -148 -168
-196 -144 -99 -368 -123 -518 -54 -243 111 -283 453 -87 740 129 189 382 301
572 252 93 -24 153 -60 221 -135 34 -36 76 -83 95 -103 l35 -38 145 0 c131 0
145 2 145 18 -1 48 -34 165 -65 229 -70 143 -251 276 -439 323 -78 20 -233 32
-291 24z"/>
<path d="M9495 3110 c-113 -13 -135 -42 -135 -180 l0 -90 321 0 c258 0 320 -3
316 -13 -4 -10 -608 -804 -909 -1194 l-79 -103 614 0 614 0 27 128 c14 70 26
130 26 135 0 4 -160 7 -356 7 -228 0 -354 4 -352 10 2 8 477 631 866 1138 98
128 102 135 86 153 -16 18 -39 19 -498 18 -265 -1 -508 -5 -541 -9z"/>
<path d="M14250 2770 c-372 -44 -650 -356 -650 -729 0 -162 42 -279 138 -383
66 -70 109 -100 201 -136 60 -24 78 -26 206 -26 125 0 149 3 220 27 44 14 109
43 144 64 81 48 193 157 254 248 l47 70 -122 3 c-149 4 -228 -14 -296 -66
-126 -96 -286 -108 -396 -29 -31 22 -70 99 -81 158 -7 36 -6 37 42 54 42 15
99 18 456 20 l409 3 24 23 c30 28 44 77 44 156 0 217 -139 432 -330 510 -46
18 -201 46 -235 42 -5 -1 -39 -5 -75 -9z m168 -275 c88 -27 146 -94 154 -180
l3 -40 -298 -3 c-250 -2 -297 0 -297 12 0 7 20 41 44 74 46 63 103 107 171
135 51 20 157 21 223 2z"/>
<path d="M8373 2760 c-135 -25 -271 -98 -378 -205 -81 -80 -136 -159 -172
-248 -145 -356 22 -720 368 -802 198 -46 441 11 626 148 203 151 327 457 279
687 -41 196 -162 331 -353 396 -64 22 -100 27 -198 30 -66 2 -143 -1 -172 -6z
m245 -294 c90 -32 144 -98 163 -199 30 -166 -82 -372 -246 -453 -54 -26 -70
-29 -160 -29 -90 0 -104 3 -145 27 -95 56 -141 135 -141 242 0 113 36 205 115
292 42 47 134 106 195 124 44 14 176 11 219 -4z"/>
<path d="M11078 2760 c-242 -38 -446 -200 -543 -430 -63 -151 -82 -320 -50
-445 38 -144 146 -276 276 -338 171 -81 333 -77 557 12 56 23 105 41 107 41 3
0 5 -9 5 -19 0 -16 15 -23 91 -40 123 -29 169 -35 169 -25 1 5 56 282 123 616
l123 606 -35 6 c-20 3 -65 6 -101 6 -77 0 -120 -22 -146 -72 -9 -18 -18 -34
-19 -36 -1 -1 -44 16 -95 38 -50 22 -119 50 -152 61 -70 23 -223 33 -310 19z
m255 -300 c62 -23 117 -76 146 -140 40 -87 21 -228 -42 -326 -32 -49 -121
-134 -170 -162 -169 -96 -372 -53 -447 94 -21 42 -25 63 -25 139 0 80 4 97 31
155 55 116 133 191 241 236 76 31 189 33 266 4z"/>
<path d="M12614 2755 c-257 -56 -472 -267 -534 -526 -50 -208 -6 -395 125
-525 65 -66 127 -102 220 -129 80 -24 243 -15 380 19 54 14 100 24 102 22 8
-8 -31 -110 -60 -153 -60 -91 -194 -153 -326 -153 -86 1 -139 24 -182 83 -46
61 -86 86 -155 97 -83 14 -139 12 -179 -4 -55 -23 -49 -65 23 -174 86 -130
144 -184 240 -220 134 -52 258 -64 394 -38 186 36 330 122 434 259 103 135
131 229 249 827 42 212 85 432 96 488 11 57 19 106 17 108 -3 2 -42 5 -88 6
l-84 1 -54 -59 -53 -58 -122 62 c-70 36 -145 67 -176 72 -73 14 -193 11 -267
-5z m273 -280 c63 -26 104 -65 130 -123 54 -117 11 -284 -101 -395 -166 -165
-422 -162 -507 4 -62 123 -34 279 74 396 52 57 87 81 156 109 68 29 191 33
248 9z"/>
</g>
</svg>
