<svg version="1.2" xmlns="http://www.w3.org/2000/svg" viewBox="0 0 584 456" width="584" height="456"><style>.a{fill:#aa1c54}</style><path class="a" d="m21.4 92.4c-2.6 6.8 25.7 53.4 38.7 63.7 8.5 6.7 18.4 9.6 41.9 12.3 7.4 0.9 21.8 2.7 32 4 32.3 4.3 84.5 9.4 144.5 14.1 99 7.8 160.1 13.8 191 18.6 18.3 2.9 39.5 7.7 43 9.8 5.2 3 7.5 7.5 7.5 14.7 0 6 0.2 6.4 3.7 9.6 7.8 6.9 12.9 12.7 15.7 17.8 2.1 3.8 2.5 5.2 1.4 4.7-10.8-4.1-15.6-4.8-32.3-4.8-22.9 0-51.1 4.3-82.5 12.7-3.1 0.8-1.8-0.1 24.8-18.6 10.6-7.3 18.9-13.6 18.5-14-1.5-1.3-14.2-3.1-60.3-8.6-25.6-3-55.7-6.6-67-8-35-4.2-90-10.8-132.5-15.9-12.1-1.5-45.2-5.5-73.5-8.9-59.7-7.2-55.1-7.7-50.5 5.1 13.6 38.4 34.8 67.2 63.4 86.1 13.3 8.8 20 11.6 27.6 11.5 2.8 0 23.2-3.9 45.5-8.6 22.3-4.7 45.2-9.5 51-10.7 5.8-1.2 20.2-4.1 32-6.6 11.8-2.5 28.9-6 38-7.9 9.1-1.8 18.5-3.8 20.9-4.4 2.4-0.5 3.9-0.6 3.5-0.2-0.5 0.5-16 6.5-34.4 13.6-18.4 7-38.4 14.6-44.5 17-6 2.3-32.5 12.4-58.7 22.5-40 15.4-47.8 18.6-47.8 20.2 0 5.5 21.1 24.3 34.5 30.7 11.4 5.5 30.4 11.7 41.5 13.7 13.1 2.3 34.1 1.4 50.6-2 31.1-6.5 106.5-30.1 175.4-54.9 40.9-14.6 46.6-17.3 52-23.4 3.3-3.7 14-24.8 14-27.5 0-0.8 1.8-6.8 4.1-13.3 2.2-6.6 4.7-16.5 5.5-22 7.4-49-28.5-88.6-95.6-105.5-18.7-4.7-37-7.5-86.5-12.9-66-7.3-94.6-9.7-149-12.6-35.6-1.9-85.6-5-111-7-23.4-1.8-61.1-4.2-80.7-5.1-13.3-0.6-14.8-0.5-15.4 1z"/><path class="a" d="m1530.2 137.5c-6.7 2.9-7.9 5.8-11.6 27.5-1.4 8-4.3 23-6.6 33.5-3.3 15.3-21 103.1-21 104.2 0 0.2 6.9 0.3 15.4 0.3h15.4l1.2-5.3c3.6-16.8 32-159 31.8-159.2-0.5-0.5-15.7-2.5-18.6-2.5-1.5 0.1-4.2 0.7-6 1.5z"/><path class="a" d="m675.5 141.6c-8 1.2-18.6 3.8-24.5 6.1-30.8 12.1-54.1 38.8-60.5 69.5-8.2 39 6.8 71.5 38.9 84.2 10.2 4.1 19.7 5.7 32.7 5.7 44.1 0 79.2-28.8 89-73 1-4.7 1.9-9.4 1.9-10.4 0-1.6-2.5-1.7-39.2-1.7-37.2 0-39.5 0.1-42.5 2-3.9 2.4-5.5 7.5-5.1 16.3l0.3 6.2 22.3 0.3c12.2 0.1 22.2 0.5 22.2 0.8 0 3.3-9.8 14.8-16.8 19.6-14.4 9.9-36.8 12.3-51.8 5.4-24.3-11.1-28.3-45.3-8.7-74 12.9-18.9 38.2-30.1 57.2-25.2 9.3 2.4 15.3 6 22.1 13.5 3.4 3.6 7.6 8.3 9.5 10.3l3.5 3.8h14.5c13.1 0 14.5-0.2 14.5-1.8-0.1-4.8-3.4-16.5-6.5-22.9-7-14.3-25.1-27.6-43.9-32.3-7.8-2-23.3-3.2-29.1-2.4z"/><path class="a" d="m939.5 145c-11.3 1.3-13.5 4.2-13.5 18v9h32.1c25.8 0 32 0.3 31.6 1.3-0.4 1-60.8 80.4-90.9 119.4l-7.9 10.3h61.4 61.4l2.7-12.8c1.4-7 2.6-13 2.6-13.5 0-0.4-16-0.7-35.6-0.7-22.8 0-35.4-0.4-35.2-1 0.2-0.8 47.7-63.1 86.6-113.8 9.8-12.8 10.2-13.5 8.6-15.3-1.6-1.8-3.9-1.9-49.8-1.8-26.5 0.1-50.8 0.5-54.1 0.9z"/><path fill-rule="evenodd" class="a" d="m1422.5 178.1c3.4-0.4 18.9 2.4 23.5 4.2 19.1 7.8 33 29.3 33 51 0 7.9-1.4 12.8-4.4 15.6l-2.4 2.3-40.9 0.3c-35.7 0.2-41.4 0.5-45.6 2-4.8 1.7-4.9 1.8-4.2 5.4 1.1 5.9 5 13.6 8.1 15.8 11 7.9 27 6.7 39.6-2.9 6.8-5.2 14.7-7 29.6-6.6l12.2 0.3-4.7 7c-6.1 9.1-17.3 20-25.4 24.8-3.5 2.1-10 5-14.4 6.4-7.1 2.4-9.5 2.7-22 2.7-12.8 0-14.6-0.2-20.6-2.6-9.2-3.6-13.5-6.6-20.1-13.6-9.6-10.4-13.8-22.1-13.8-38.3 0-37.3 27.8-68.5 65-72.9 3.6-0.4 7-0.8 7.5-0.9zm-13 28.6c-6.8 2.8-12.5 7.2-17.1 13.5-2.4 3.3-4.4 6.7-4.4 7.4 0 1.2 4.7 1.4 29.7 1.2l29.8-0.3-0.3-4c-0.8-8.6-6.6-15.3-15.4-18-6.6-1.9-17.2-1.8-22.3 0.2z"/><path fill-rule="evenodd" class="a" d="m844.5 179.4c9.8 0.3 13.4 0.8 19.8 3 19.1 6.5 31.2 20 35.3 39.6 4.8 23-7.6 53.6-27.9 68.7-18.5 13.7-42.8 19.4-62.6 14.8-34.6-8.2-51.3-44.6-36.8-80.2 3.6-8.9 9.1-16.8 17.2-24.8 10.7-10.7 24.3-18 37.8-20.5 2.9-0.5 10.6-0.8 17.2-0.6zm-14.6 29.6c-6.1 1.8-15.3 7.7-19.5 12.4-7.9 8.7-11.5 17.9-11.5 29.2 0 10.7 4.6 18.6 14.1 24.2 4.1 2.4 5.5 2.7 14.5 2.7 9 0 10.6-0.3 16-2.9 16.4-8.1 27.6-28.7 24.6-45.3-1.9-10.1-7.3-16.7-16.3-19.9-4.3-1.5-17.5-1.8-21.9-0.4z"/><path fill-rule="evenodd" class="a" d="m1128.8 181.9c3.3 1.1 10.2 3.9 15.2 6.1 5.1 2.2 9.4 3.9 9.5 3.8 0.1-0.2 1-1.8 1.9-3.6 2.6-5 6.9-7.2 14.6-7.2 3.6 0 8.1 0.3 10.1 0.6l3.5 0.6-12.3 60.6c-6.7 33.4-12.2 61.1-12.3 61.6 0 1-4.6 0.4-16.9-2.5-7.6-1.7-9.1-2.4-9.1-4 0-1-0.2-1.9-0.5-1.9-0.2 0-5.1 1.8-10.7 4.1-22.4 8.9-38.6 9.3-55.7 1.2-13-6.2-23.8-19.4-27.6-33.8-3.2-12.5-1.3-29.4 5-44.5 9.7-23 30.1-39.2 54.3-43 8.7-1.4 24-0.4 31 1.9zm-32.1 28.5c-10.8 4.5-18.6 12-24.1 23.6-2.7 5.8-3.1 7.5-3.1 15.5 0 7.6 0.4 9.7 2.5 13.9 7.5 14.7 27.8 19 44.7 9.4 4.9-2.8 13.8-11.3 17-16.2 6.3-9.8 8.2-23.9 4.2-32.6-2.9-6.4-8.4-11.7-14.6-14-7.7-2.9-19-2.7-26.6 0.4z"/><path fill-rule="evenodd" class="a" d="m1278.1 180c3.1 0.5 10.6 3.6 17.6 7.2l12.2 6.2 5.3-5.8 5.4-5.9 8.4 0.1c4.6 0.1 8.5 0.4 8.8 0.6 0.2 0.2-0.6 5.1-1.7 10.8-1.1 5.6-5.4 27.6-9.6 48.8-11.8 59.8-14.6 69.2-24.9 82.7-10.4 13.7-24.8 22.3-43.4 25.9-13.6 2.6-26 1.4-39.4-3.8-9.6-3.6-15.4-9-24-22-7.2-10.9-7.8-15.1-2.3-17.4 4-1.6 9.6-1.8 17.9-0.4 6.9 1.1 10.9 3.6 15.5 9.7 4.3 5.9 9.6 8.2 18.2 8.3 13.2 0 26.6-6.2 32.6-15.3 2.9-4.3 6.8-14.5 6-15.3-0.2-0.2-4.8 0.8-10.2 2.2-13.7 3.4-30 4.3-38 1.9-9.3-2.7-15.5-6.3-22-12.9-13.1-13-17.5-31.7-12.5-52.5 6.2-25.9 27.7-47 53.4-52.6 7.4-1.6 19.4-1.9 26.7-0.5zm-24.2 29.4c-6.9 2.8-10.4 5.2-15.6 10.9-10.8 11.7-13.6 27.3-7.4 39.6 8.5 16.6 34.1 16.9 50.7 0.4 11.2-11.1 15.5-27.8 10.1-39.5-2.6-5.8-6.7-9.7-13-12.3-5.7-2.4-18-2-24.8 0.9z"/></svg>