<?xml version="1.0" standalone="no"?>
<!DOCTYPE svg PUBLIC "-//W3C//DTD SVG 20010904//EN"
 "http://www.w3.org/TR/2001/REC-SVG-20010904/DTD/svg10.dtd">
<svg version="1.0" xmlns="http://www.w3.org/2000/svg"
 width="430.000000pt" height="553.000000pt" viewBox="0 0 430.000000 553.000000"
 preserveAspectRatio="xMidYMid meet">

<g transform="translate(0.000000,553.000000) scale(0.100000,-0.100000)"
fill="#000000" stroke="none">
<path d="M2400 3856 c-409 -236 -1579 -910 -1727 -995 -72 -41 -130 -78 -127
-82 6 -11 296 -176 356 -204 113 -51 238 -50 353 4 33 16 202 110 375 211 173
100 486 281 695 401 l380 219 -8 218 c-9 266 -17 382 -25 382 -4 0 -126 -69
-272 -154z"/>
<path d="M3071 3000 c-29 -11 -144 -72 -255 -136 -110 -64 -518 -298 -906
-521 -388 -223 -732 -423 -765 -443 -33 -21 -73 -41 -90 -44 -19 -4 -25 -3
-17 2 10 7 4 14 -23 26 -38 18 -58 15 -37 -6 16 -16 15 -25 -2 -25 -8 0 -14 5
-13 11 1 5 -5 10 -13 11 -8 0 -25 6 -38 13 -22 12 -22 12 -10 -7 14 -23 4 -41
-14 -23 -15 15 -488 17 -488 2 0 -11 -289 -14 -327 -4 -18 5 -23 14 -25 43 -1
23 -4 12 -8 -29 -4 -36 -7 -50 -8 -32 -1 17 -6 32 -12 32 -6 0 -10 -111 -10
-313 0 -356 -9 -320 95 -378 33 -18 139 -78 235 -134 96 -56 252 -146 345
-200 94 -54 292 -169 440 -255 149 -87 351 -204 450 -260 99 -57 264 -152 366
-211 102 -60 192 -109 201 -109 9 0 107 53 219 118 112 66 339 197 504 292
165 95 352 204 415 240 63 37 162 94 220 127 58 33 193 111 300 173 107 62
253 146 324 187 71 40 135 81 142 91 11 13 13 94 13 382 0 255 -3 360 -10 347
-6 -9 -8 -26 -4 -36 3 -11 1 -22 -5 -26 -5 -3 -10 -1 -10 4 0 6 -7 11 -15 11
-8 0 -15 -6 -15 -12 0 -9 -2 -10 -8 -2 -4 7 -96 14 -267 20 -306 11 -402 9
-421 -7 -11 -9 -19 -8 -36 3 -13 7 -35 13 -50 13 -15 -1 -25 2 -22 7 2 4 -6 5
-18 2 -13 -3 -29 -6 -36 -6 -6 -1 -10 -4 -7 -6 6 -7 -15 -32 -27 -32 -5 0 -6
5 -2 12 4 7 -8 1 -27 -13 -19 -13 -38 -24 -44 -24 -5 -1 -9 -7 -7 -14 1 -7 -2
-10 -7 -7 -14 9 -61 -15 -54 -27 4 -6 0 -8 -9 -4 -9 3 -25 -3 -36 -13 -11 -10
-23 -16 -26 -13 -3 4 -6 1 -6 -5 0 -7 -3 -11 -7 -10 -15 3 -43 -14 -37 -23 3
-5 -2 -6 -10 -3 -9 3 -16 1 -16 -5 0 -6 5 -11 12 -11 6 0 8 -3 5 -6 -4 -4 -12
-2 -19 4 -14 11 -43 -10 -30 -22 3 -4 -1 -4 -9 -1 -18 7 -89 -31 -89 -47 0 -5
-4 -6 -10 -3 -5 3 -10 1 -10 -5 0 -6 -4 -8 -10 -5 -5 3 -10 2 -10 -3 0 -5 -6
-9 -12 -9 -14 0 -120 -62 -129 -76 -3 -5 -10 -9 -15 -9 -9 1 -115 -57 -124
-67 -3 -3 -21 -14 -40 -23 -19 -10 -42 -22 -50 -27 -108 -68 -338 -194 -355
-194 -12 0 -66 26 -121 58 -174 102 -357 205 -361 205 -2 0 -1 -5 3 -12 5 -7
3 -8 -5 -4 -7 5 -10 10 -7 13 3 3 -4 13 -16 23 -21 16 -20 17 63 65 129 75
946 544 1519 872 283 163 521 300 528 306 15 12 -334 209 -412 232 -71 21
-199 19 -265 -5z m333 -1076 c3 -8 2 -12 -4 -9 -6 3 -10 10 -10 16 0 14 7 11
14 -7z m-18 -25 c4 -8 -1 -9 -16 -4 -15 5 -20 4 -16 -4 4 -6 2 -11 -4 -11 -6
0 -8 -5 -4 -11 4 -7 -1 -7 -16 1 -25 13 -42 4 -20 -10 11 -7 11 -10 2 -10 -19
0 -27 31 -11 40 8 5 16 5 20 -1 3 -6 11 -4 19 6 15 18 36 20 46 4z m98 0 c-3
-6 -15 -9 -25 -6 -11 3 -19 0 -19 -6 0 -6 -3 -8 -6 -4 -11 11 7 27 32 27 16 0
23 -4 18 -11z m-2464 -40 c0 -5 -4 -9 -8 -9 -5 0 -9 7 -9 15 0 8 4 12 9 9 4
-3 8 -9 8 -15z m-73 -5 c-3 -3 -12 -4 -19 -1 -8 3 -5 6 6 6 11 1 17 -2 13 -5z
m-164 -11 c-57 -2 -149 -2 -205 0 -57 1 -11 3 102 3 113 0 159 -2 103 -3z
m2401 -54 c-3 -5 -10 -7 -15 -3 -5 3 -7 10 -3 15 3 5 10 7 15 3 5 -3 7 -10 3
-15z m-92 -51 c-8 -8 -9 -4 -5 13 4 13 8 18 11 10 2 -7 -1 -18 -6 -23z m-47
-26 c-3 -3 -11 0 -18 7 -9 10 -8 11 6 5 10 -3 15 -9 12 -12z"/>
<path d="M4036 2318 c3 -5 10 -6 15 -3 13 9 11 12 -6 12 -8 0 -12 -4 -9 -9z"/>
<path d="M3668 2113 c-23 -28 -30 -43 -19 -43 6 0 11 7 11 16 0 8 5 12 10 9 6
-4 9 -1 8 7 -2 7 3 12 10 10 8 -1 11 2 7 8 -8 13 -9 13 -27 -7z"/>
<path d="M3700 2100 c-9 -6 -10 -10 -3 -10 6 0 15 5 18 10 8 12 4 12 -15 0z"/>
<path d="M3610 2075 c-7 -8 -16 -13 -20 -10 -4 2 -15 -2 -25 -9 -14 -10 -15
-15 -5 -21 8 -5 11 -4 7 2 -4 6 0 14 9 17 12 4 15 2 11 -9 -4 -8 -1 -17 5 -21
7 -4 8 -3 4 4 -4 7 -2 12 4 12 6 0 9 4 5 9 -3 6 3 14 12 20 10 5 15 12 12 15
-3 4 -12 0 -19 -9z"/>
<path d="M672 2065 c15 -16 20 -17 30 -6 11 11 10 13 0 7 -7 -4 -21 -2 -30 5
-15 12 -15 11 0 -6z"/>
<path d="M709 2048 c-6 -21 -5 -37 2 -32 5 3 7 9 4 14 -3 4 1 11 7 13 10 4 10
6 1 6 -7 1 -13 0 -14 -1z"/>
<path d="M3660 2040 c0 -5 5 -10 11 -10 5 0 7 5 4 10 -3 6 -8 10 -11 10 -2 0
-4 -4 -4 -10z"/>
<path d="M3615 2020 c-3 -6 1 -7 9 -4 18 7 21 14 7 14 -6 0 -13 -4 -16 -10z"/>
<path d="M3500 2009 c0 -5 -4 -7 -10 -4 -5 3 -10 2 -10 -4 0 -5 6 -11 13 -14
6 -2 9 -7 6 -11 -9 -10 -40 4 -33 15 3 5 -6 4 -21 -3 -14 -6 -24 -16 -23 -20
5 -13 24 -8 20 4 -2 6 4 8 13 4 9 -3 20 -6 23 -6 4 0 2 -4 -4 -8 -8 -5 -7 -11
4 -22 14 -13 15 -12 9 3 -8 20 3 22 23 5 12 -11 12 -10 2 3 -9 12 -9 18 0 27
9 9 9 12 0 12 -6 0 -9 7 -6 15 4 8 3 15 0 15 -3 0 -6 -5 -6 -11z"/>
<path d="M4098 2003 c12 -2 30 -2 40 0 9 3 -1 5 -23 4 -22 0 -30 -2 -17 -4z"/>
<path d="M4188 2003 c7 -3 16 -2 19 1 4 3 -2 6 -13 5 -11 0 -14 -3 -6 -6z"/>
<path d="M827 1982 c6 -14 4 -15 -8 -5 -12 10 -15 8 -15 -7 0 -15 4 -16 18 -9
13 7 18 6 18 -2 0 -8 4 -9 13 0 8 6 18 7 22 3 5 -4 5 -2 1 5 -4 7 -14 9 -23 6
-10 -4 -14 -2 -10 4 4 6 0 13 -8 16 -10 4 -12 1 -8 -11z"/>
<path d="M855 1940 c-11 -4 -117 -8 -234 -9 -118 -1 -217 -4 -220 -6 -2 -3
104 -5 236 -5 206 0 240 2 240 15 0 8 -1 15 -1 14 -1 0 -10 -4 -21 -9z"/>
<path d="M917 1937 c4 -6 8 -16 8 -22 0 -5 9 -11 20 -12 11 -2 14 0 8 3 -7 3
-13 12 -13 19 0 7 -7 16 -16 19 -10 4 -13 2 -7 -7z"/>
<path d="M4080 1940 c0 -5 16 -10 35 -10 19 0 35 5 35 10 0 6 -16 10 -35 10
-19 0 -35 -4 -35 -10z"/>
<path d="M4160 1940 c0 -5 11 -10 25 -10 14 0 25 5 25 10 0 6 -11 10 -25 10
-14 0 -25 -4 -25 -10z"/>
<path d="M4220 1940 c0 -5 5 -10 10 -10 6 0 10 5 10 10 0 6 -4 10 -10 10 -5 0
-10 -4 -10 -10z"/>
</g>
</svg>
