<?xml version="1.0" encoding="iso-8859-1"?>
<!-- Uploaded to: SVG Repo, www.svgrepo.com, Generator: SVG Repo Mixer Tools -->
<svg height="800px" width="800px" version="1.1" id="Layer_1" xmlns="http://www.w3.org/2000/svg" xmlns:xlink="http://www.w3.org/1999/xlink" 
	 viewBox="0 0 511.994 511.994" xml:space="preserve">
<path d="M165.904,411.749v-20.487c33.343-18.879,45.063-61.214,26.183-94.549s-61.214-45.063-94.549-26.183
	s-45.063,61.206-26.183,94.549c6.192,10.936,15.248,19.991,26.183,26.183v20.479c-64.654,3.032-97.533,46.743-97.533,76.126v24.127
	h263.424v-24.127C263.429,458.484,230.55,414.773,165.904,411.749z"/>
<path style="fill:#E21B1B;" d="M414.464,150.189V129.75c33.343-18.879,45.063-61.214,26.183-94.549
	C421.768,1.866,379.433-9.862,346.098,9.018s-45.063,61.214-26.183,94.549c6.192,10.936,15.247,19.991,26.183,26.183v20.479
	c-64.654,3.024-97.525,46.735-97.525,76.118v24.127h263.416v-24.159C511.989,196.948,479.11,153.213,414.464,150.189z"/>
<polygon points="388.281,443.724 210.535,443.724 210.535,427.725 372.281,427.725 372.281,250.442 388.281,250.442 "/>
</svg>